<svg width="38" height="38" viewBox="0 0 38 38" fill="none" xmlns="http://www.w3.org/2000/svg">
<path d="M23.9083 5.54169C23.7216 5.91756 23.6918 6.35216 23.8254 6.74999C23.959 7.14782 24.2451 7.47634 24.6208 7.66336C26.6446 8.66551 28.3637 10.1905 29.6 12.0804C30.8363 13.9703 31.5449 16.1564 31.6523 18.4122C31.7597 20.668 31.2621 22.9115 30.2109 24.9103C29.1598 26.9091 27.5933 28.5906 25.6739 29.7804C23.7544 30.9703 21.5517 31.6254 19.294 31.6779C17.0362 31.7303 14.8055 31.1781 12.8329 30.0786C10.8603 28.979 9.21751 27.3721 8.07472 25.4242C6.93194 23.4764 6.33071 21.2584 6.33331 19C6.32308 16.6391 6.97873 14.3231 8.225 12.3179C9.47126 10.3126 11.2577 8.69942 13.3791 7.66336C13.7571 7.47439 14.0445 7.14303 14.1781 6.74217C14.3117 6.34131 14.2806 5.90379 14.0916 5.52586C13.9027 5.14792 13.5713 4.86054 13.1705 4.72692C12.7696 4.5933 12.3321 4.62439 11.9541 4.81336C8.75698 6.40207 6.19058 9.02465 4.67149 12.2555C3.15239 15.4863 2.76976 19.1357 3.58571 22.6113C4.40166 26.0869 6.36829 29.1848 9.1664 31.4021C11.9645 33.6194 15.4298 34.8259 19 34.8259C22.5701 34.8259 26.0354 33.6194 28.8336 31.4021C31.6317 29.1848 33.5983 26.0869 34.4142 22.6113C35.2302 19.1357 34.8476 15.4863 33.3285 12.2555C31.8094 9.02465 29.243 6.40207 26.0458 4.81336C25.858 4.71901 25.6532 4.66299 25.4435 4.64859C25.2338 4.63419 25.0234 4.66169 24.8244 4.72949C24.6254 4.79728 24.442 4.90402 24.2847 5.04346C24.1274 5.18291 23.9994 5.35228 23.9083 5.54169ZM17.4166 4.75003L17.4166 19.9342L13.7908 16.2925C13.6432 16.1449 13.4679 16.0278 13.275 15.9479C13.0822 15.868 12.8754 15.8269 12.6666 15.8269C12.4579 15.8269 12.2511 15.868 12.0582 15.9479C11.8654 16.0278 11.6901 16.1449 11.5425 16.2925C11.3948 16.4402 11.2777 16.6154 11.1978 16.8083C11.1179 17.0012 11.0768 17.2079 11.0768 17.4167C11.0768 17.6255 11.1179 17.8322 11.1978 18.0251C11.2777 18.218 11.3948 18.3932 11.5425 18.5409L17.8758 24.8742C18.0264 25.0183 18.2039 25.1313 18.3983 25.2067C18.7838 25.3651 19.2162 25.3651 19.6016 25.2067C19.796 25.1313 19.9736 25.0183 20.1241 24.8742L26.4575 18.5409C26.6059 18.3937 26.7237 18.2185 26.8041 18.0256C26.8844 17.8327 26.9258 17.6257 26.9258 17.4167C26.9258 17.2077 26.8844 17.0007 26.8041 16.8078C26.7237 16.6148 26.6059 16.4397 26.4575 16.2925C26.3103 16.1441 26.1352 16.0263 25.9422 15.9459C25.7493 15.8656 25.5423 15.8242 25.3333 15.8242C25.1243 15.8242 24.9173 15.8656 24.7244 15.9459C24.5315 16.0263 24.3563 16.1441 24.2091 16.2925L20.5833 19.9342L20.5833 4.75003C20.5833 4.3301 20.4165 3.92737 20.1196 3.63044C19.8226 3.33351 19.4199 3.16669 19 3.16669C18.58 3.16669 18.1773 3.33351 17.8804 3.63044C17.5835 3.92737 17.4166 4.3301 17.4166 4.75003Z" fill="#49BA62"/>
</svg>
