<svg width="38" height="38" viewBox="0 0 38 38" fill="none" xmlns="http://www.w3.org/2000/svg">
<path d="M14.0917 32.4583C14.2784 32.0824 14.3082 31.6478 14.1746 31.25C14.041 30.8522 13.7549 30.5237 13.3792 30.3366C11.3554 29.3345 9.63626 27.8095 8.39996 25.9196C7.16365 24.0297 6.4551 21.8436 6.3477 19.5878C6.2403 17.332 6.73794 15.0885 7.78909 13.0897C8.84025 11.0909 10.4067 9.40945 12.3261 8.21955C14.2456 7.02965 16.4483 6.37457 18.706 6.32215C20.9638 6.26973 23.1945 6.82188 25.1671 7.92142C27.1397 9.02095 28.7825 10.6279 29.9253 12.5758C31.0681 14.5236 31.6693 16.7416 31.6667 19C31.6769 21.3609 31.0213 23.6769 29.775 25.6821C28.5287 27.6874 26.7423 29.3006 24.6209 30.3366C24.2429 30.5256 23.9555 30.857 23.8219 31.2578C23.6883 31.6587 23.7194 32.0962 23.9084 32.4741C24.0973 32.8521 24.4287 33.1395 24.8295 33.2731C25.2304 33.4067 25.6679 33.3756 26.0459 33.1866C29.243 31.5979 31.8094 28.9753 33.3285 25.7445C34.8476 22.5137 35.2302 18.8643 34.4143 15.3887C33.5983 11.9131 31.6317 8.81521 28.8336 6.59792C26.0355 4.38063 22.5702 3.17407 19 3.17407C15.4299 3.17407 11.9646 4.38063 9.16645 6.59792C6.36834 8.81521 4.40171 11.9131 3.58576 15.3887C2.76981 18.8643 3.15244 22.5137 4.67154 25.7445C6.19064 28.9753 8.75704 31.5979 11.9542 33.1866C12.142 33.281 12.3468 33.337 12.5565 33.3514C12.7662 33.3658 12.9766 33.3383 13.1756 33.2705C13.3746 33.2027 13.558 33.096 13.7153 32.9565C13.8726 32.8171 14.0006 32.6477 14.0917 32.4583ZM20.5834 33.25V18.0658L24.2092 21.7075C24.3568 21.8551 24.5321 21.9722 24.725 22.0521C24.9178 22.132 25.1246 22.1731 25.3334 22.1731C25.5421 22.1731 25.7489 22.132 25.9418 22.0521C26.1346 21.9722 26.3099 21.8551 26.4575 21.7075C26.6052 21.5598 26.7223 21.3846 26.8022 21.1917C26.8821 20.9988 26.9232 20.7921 26.9232 20.5833C26.9232 20.3745 26.8821 20.1678 26.8022 19.9749C26.7223 19.782 26.6052 19.6068 26.4575 19.4591L20.1242 13.1258C19.9736 12.9817 19.7961 12.8687 19.6017 12.7933C19.2162 12.6349 18.7838 12.6349 18.3984 12.7933C18.204 12.8687 18.0264 12.9817 17.8759 13.1258L11.5425 19.4591C11.3941 19.6063 11.2763 19.7815 11.1959 19.9744C11.1156 20.1673 11.0742 20.3743 11.0742 20.5833C11.0742 20.7923 11.1156 20.9993 11.1959 21.1922C11.2763 21.3852 11.3941 21.5603 11.5425 21.7075C11.6897 21.8559 11.8648 21.9737 12.0578 22.0541C12.2507 22.1344 12.4577 22.1758 12.6667 22.1758C12.8757 22.1758 13.0827 22.1344 13.2756 22.0541C13.4685 21.9737 13.6437 21.8559 13.7909 21.7075L17.4167 18.0658V33.25C17.4167 33.6699 17.5835 34.0726 17.8804 34.3696C18.1774 34.6665 18.5801 34.8333 19 34.8333C19.42 34.8333 19.8227 34.6665 20.1196 34.3696C20.4165 34.0726 20.5834 33.6699 20.5834 33.25Z" fill="#E83030"/>
</svg>
