<svg width="228" height="257" viewBox="0 0 228 257" fill="none" xmlns="http://www.w3.org/2000/svg">
<path d="M26.5264 168.707C34.5783 168.707 41.1057 162.85 41.1057 155.625C41.1057 148.4 34.5783 142.544 26.5264 142.544C18.4744 142.544 11.947 148.4 11.947 155.625C11.947 162.85 18.4744 168.707 26.5264 168.707Z" fill="#FF6584"/>
<path d="M116.847 170.437C116.847 196.192 99.7837 205.185 78.7345 205.185C57.6853 205.185 40.6216 196.192 40.6216 170.437C40.6216 144.682 78.7345 111.918 78.7345 111.918C78.7345 111.918 116.847 144.682 116.847 170.437Z" fill="#DA8215"/>
<path d="M77.3462 201.245L77.7363 179.691L93.9811 153.025L77.7975 176.31L77.9731 166.618L89.1688 147.325L78.0195 164.053L78.3352 146.622L90.3239 131.262L78.3848 143.881L78.5818 111.918L77.3427 154.231L77.4447 152.485L65.2555 135.745L77.2492 155.836L76.1134 175.304L76.0795 174.787L62.028 157.17L76.0371 176.612L75.8949 179.047L75.8695 179.084L75.8811 179.283L72.9998 228.675H76.8495L77.3115 203.163L91.2862 183.768L77.3462 201.245Z" fill="#3F3D56"/>
<path d="M153.621 194.763C153.621 220.518 136.557 229.511 115.508 229.511C94.459 229.511 77.3953 220.518 77.3953 194.763C77.3953 169.008 115.508 136.244 115.508 136.244C115.508 136.244 153.621 169.008 153.621 194.763Z" fill="#3F3D56"/>
<path d="M114.12 225.571L114.51 204.016L130.755 177.35L114.571 200.635L114.747 190.943L125.943 171.651L114.793 188.378V188.379L115.109 170.947L127.098 155.588L115.158 168.206L115.356 136.244L114.116 178.556L114.218 176.811L102.029 160.07L114.023 180.162L112.887 199.629L112.853 199.112L98.8016 181.495L112.811 200.938L112.669 203.373L112.643 203.409L112.655 203.609L109.773 253H113.623L114.085 227.489L128.06 208.094L114.12 225.571Z" fill="#F2F2F2"/>
<path d="M81.9527 194.763C81.9527 220.518 64.889 229.511 43.8398 229.511C22.7906 229.511 5.72681 220.518 5.72681 194.763C5.72681 169.008 43.8398 136.244 43.8398 136.244C43.8398 136.244 81.9527 169.008 81.9527 194.763Z" fill="#3F3D56"/>
<path d="M42.4514 225.571L42.8418 204.016L59.0866 177.35L42.903 200.635L43.0784 190.943L54.2742 171.651L43.125 188.378V188.379L43.4404 170.947L55.4291 155.588L43.49 168.206L43.6873 136.244L42.4482 178.556L42.5499 176.811L30.361 160.07L42.3544 180.162L41.2186 199.629L41.185 199.112L27.1332 181.495L41.1424 200.938L41.0004 203.373L40.975 203.409L40.9866 203.609L38.105 253H41.9547L42.4167 227.489L56.3917 208.094L42.4514 225.571Z" fill="#F2F2F2"/>
<path d="M79.7049 252.782C61.4761 252.782 43.8113 247.111 29.7202 236.735C15.6291 226.359 5.98374 211.919 2.42744 195.878C-1.12886 179.836 1.62399 163.184 10.2169 148.759C18.8099 134.334 32.7112 123.029 49.5524 116.769C66.3936 110.51 85.1325 109.684 102.576 114.432C120.02 119.18 135.09 129.208 145.217 142.808C155.344 156.407 159.903 172.737 158.116 189.015C156.33 205.292 148.308 220.51 135.418 232.076C128.119 238.661 119.436 243.882 109.873 247.436C100.31 250.991 90.056 252.808 79.7049 252.782ZM79.7049 111.928C36.5911 111.928 1.51544 143.4 1.51544 182.085C1.51544 220.77 36.5911 252.243 79.7049 252.243C122.819 252.243 157.894 220.77 157.894 182.085C157.894 143.4 122.819 111.928 79.7049 111.928V111.928Z" fill="#2F2E41"/>
<path d="M144.132 222.42V252.525H15.2896V222.42L79.7105 192.313L79.8448 192.376L144.132 222.42Z" fill="#F2F2F2"/>
<path opacity="0.1" d="M144.132 222.42V252.525H79.8448V192.376L144.132 222.42Z" fill="black"/>
<path d="M74.208 210.738L69.3766 212.375V205.921L74.208 204.021V210.738Z" fill="#3F3D56"/>
<path d="M20.7922 228.802L19.1818 229.348V225.43L20.7922 224.791V228.802Z" fill="#3F3D56"/>
<path d="M26.4291 227.116L24.55 227.748V223.503L26.4291 222.763V227.116Z" fill="#3F3D56"/>
<path d="M32.6026 224.948L30.4552 225.673V221.095L32.6026 220.247V224.948Z" fill="#3F3D56"/>
<path d="M40.1186 222.299L37.4343 223.208V218.445L40.1186 217.389V222.299Z" fill="#3F3D56"/>
<path d="M49.2447 219.168L46.0238 220.26V215.074L49.2447 213.806V219.168Z" fill="#3F3D56"/>
<path d="M60.2501 215.555L56.4923 216.825V210.979L60.2501 209.501V215.555Z" fill="#3F3D56"/>
<path d="M20.7922 236.75L19.1818 237.113V233.137L20.7922 232.68V236.75Z" fill="#3F3D56"/>
<path d="M26.4291 235.546L24.55 235.968V231.692L26.4291 231.161V235.546Z" fill="#3F3D56"/>
<path d="M32.6026 234.1L30.4552 234.585V230.006L32.6026 229.398V234.1Z" fill="#3F3D56"/>
<path d="M40.1186 232.415L37.4343 233.02V228.079L40.1186 227.321V232.415Z" fill="#3F3D56"/>
<path d="M49.2447 230.247L46.0238 230.976V225.671L49.2447 224.762V230.247Z" fill="#3F3D56"/>
<path d="M60.2502 227.839L56.2238 228.747V222.781L60.2502 221.644V227.839Z" fill="#3F3D56"/>
<path d="M74.208 224.708L69.3766 225.797V219.168L74.208 217.808V224.708Z" fill="#3F3D56"/>
<path d="M74.208 238.436L69.3766 238.988V232.415L74.208 231.595V238.436Z" fill="#3F3D56"/>
<path d="M20.7922 244.457L19.1818 244.643V240.844L20.7922 240.569V244.457Z" fill="#3F3D56"/>
<path d="M26.4291 243.975L24.55 244.188V240.122L26.4291 239.805V243.975Z" fill="#3F3D56"/>
<path d="M32.6026 243.253L30.4552 243.497V238.918L32.6026 238.55V243.253Z" fill="#3F3D56"/>
<path d="M40.1186 242.289L37.4343 242.597V237.713L40.1186 237.254V242.289Z" fill="#3F3D56"/>
<path d="M49.2447 241.326L46.0238 241.693V236.268L49.2447 235.718V241.326Z" fill="#3F3D56"/>
<path d="M60.2502 240.122L56.2238 240.578V234.582L60.2502 233.897V240.122Z" fill="#3F3D56"/>
<path d="M138.897 228.802L140.508 229.348V225.43L138.897 224.791V228.802Z" fill="#3F3D56"/>
<path d="M133.26 227.116L135.14 227.748V223.503L133.26 222.763V227.116Z" fill="#3F3D56"/>
<path d="M127.087 224.948L129.234 225.673V221.095L127.087 220.247V224.948Z" fill="#3F3D56"/>
<path d="M119.571 222.299L122.255 223.208V218.445L119.571 217.389V222.299Z" fill="#3F3D56"/>
<path d="M110.445 219.168L113.666 220.26V215.074L110.445 213.806V219.168Z" fill="#3F3D56"/>
<path d="M99.4395 215.555L103.198 216.825V210.979L99.4395 209.501V215.555Z" fill="#3F3D56"/>
<path d="M138.897 236.75L140.508 237.113V233.137L138.897 232.68V236.75Z" fill="#3F3D56"/>
<path d="M133.26 235.546L135.14 235.968V231.692L133.26 231.161V235.546Z" fill="#3F3D56"/>
<path d="M127.087 234.1L129.234 234.585V230.006L127.087 229.398V234.1Z" fill="#3F3D56"/>
<path d="M119.571 232.415L122.255 233.02V228.079L119.571 227.321V232.415Z" fill="#3F3D56"/>
<path d="M110.445 230.247L113.666 230.976V225.671L110.445 224.762V230.247Z" fill="#3F3D56"/>
<path d="M99.4395 227.839L103.466 228.747V222.781L99.4395 221.644V227.839Z" fill="#3F3D56"/>
<path d="M85.4817 224.708L90.3134 225.797V219.168L85.4817 217.808V224.708Z" fill="#3F3D56"/>
<path d="M85.4817 238.436L90.3134 238.988V232.415L85.4817 231.595V238.436Z" fill="#3F3D56"/>
<path d="M138.897 244.457L140.508 244.643V240.844L138.897 240.569V244.457Z" fill="#3F3D56"/>
<path d="M133.26 243.975L135.14 244.188V240.122L133.26 239.805V243.975Z" fill="#3F3D56"/>
<path d="M127.087 243.253L129.234 243.497V238.918L127.087 238.55V243.253Z" fill="#3F3D56"/>
<path d="M119.571 242.289L122.255 242.597V237.713L119.571 237.254V242.289Z" fill="#3F3D56"/>
<path d="M110.445 241.326L113.666 241.693V236.268L110.445 235.718V241.326Z" fill="#3F3D56"/>
<path d="M99.4395 240.122L103.466 240.578V234.582L99.4395 233.897V240.122Z" fill="#3F3D56"/>
<path d="M90.0448 212.424L85.2134 210.789V203.995L90.0448 205.896V212.424Z" fill="#3F3D56"/>
<path d="M135.412 247.165H135.018V252.819H135.412V247.165Z" fill="#2F2E41"/>
<path d="M140.052 248.704H139.773V252.71H140.052V248.704Z" fill="#2F2E41"/>
<path d="M144.176 249.193H143.93V252.714H144.176V249.193Z" fill="#2F2E41"/>
<path d="M123.866 245.372V252.646L118.632 252.639L113.398 252.631V244.457L118.632 244.915L123.866 245.372Z" fill="#3F3D56"/>
<path d="M35.8239 252.646L46.2921 252.631V244.457L35.8239 245.371V252.646Z" fill="#3F3D56"/>
<path opacity="0.1" d="M123.866 245.372V252.646L118.632 252.639V244.915L123.866 245.372Z" fill="black"/>
<path d="M79.1738 246.023H78.637V252.766H79.1738V246.023Z" fill="#2F2E41"/>
<path d="M82.0033 243.622C82.0033 245.985 80.5965 247.957 78.9053 248.025C77.2611 248.09 75.9614 246.322 75.9614 244.076C75.9614 241.831 79.1737 235.666 79.1737 235.666C79.1737 235.666 82.0033 241.259 82.0033 243.622Z" fill="#DA8215"/>
<path d="M16.0176 248.184H15.6974V252.206H16.0176V248.184Z" fill="#2F2E41"/>
<path d="M17.7052 246.752C17.7052 248.161 16.8661 249.337 15.8574 249.378C14.8767 249.417 14.1014 248.362 14.1014 247.023C14.1014 245.684 16.0175 242.006 16.0175 242.006C16.0175 242.006 17.7052 245.342 17.7052 246.752Z" fill="#DA8215"/>
<path d="M137.381 247.388C137.381 248.728 136.44 249.775 135.215 249.724C133.915 249.669 132.8 248.41 132.8 246.916C132.8 245.421 135.215 241.687 135.215 241.687C135.215 241.687 137.381 246.047 137.381 247.388Z" fill="#DA8215"/>
<path d="M141.448 248.862C141.448 249.811 140.78 250.553 139.913 250.517C138.991 250.478 138.202 249.586 138.202 248.527C138.202 247.468 139.913 244.822 139.913 244.822C139.913 244.822 141.448 247.912 141.448 248.862Z" fill="#DA8215"/>
<path d="M145.402 249.332C145.402 250.167 144.816 250.819 144.053 250.787C143.243 250.752 142.549 249.969 142.549 249.038C142.549 248.107 144.053 245.782 144.053 245.782C144.053 245.782 145.402 248.497 145.402 249.332Z" fill="#DA8215"/>
<path d="M147.308 118.8C147.308 118.8 144.695 125.833 146.147 127.395C147.598 128.958 137.438 122.707 137.438 122.707L142.954 116.976L147.308 118.8Z" fill="#A0616A"/>
<path d="M141.35 118.788C148.548 118.788 154.384 113.552 154.384 107.093C154.384 100.634 148.548 95.3983 141.35 95.3983C134.152 95.3983 128.316 100.634 128.316 107.093C128.316 113.552 134.152 118.788 141.35 118.788Z" fill="#2F2E41"/>
<path d="M192.014 197.985L185.337 202.673L181.563 197.203L188.24 193.036L192.014 197.985Z" fill="#A0616A"/>
<path d="M185.267 228.151L187.606 239.277L194.234 248.102C194.234 248.102 212.169 253.473 200.082 256.159C187.996 258.844 185.267 254.24 185.267 254.24L176.689 246.951V256.926H171.231L170.061 242.73C170.061 242.73 169.281 238.51 172.79 233.906L173.57 227L185.267 228.151Z" fill="#2F2E41"/>
<path d="M141.228 88.4615L144.299 106.154C144.299 106.154 176.92 102.692 179.223 109.231C181.525 115.769 182.293 117.692 182.293 117.692L175.769 120L172.698 114.231C171.763 113.899 170.77 113.762 169.781 113.828C168.791 113.894 167.825 114.162 166.942 114.615C163.872 116.154 137.007 120 135.088 115C133.169 110 127.796 91.5385 127.796 91.5385L135.856 85L141.228 88.4615Z" fill="#A0616A"/>
<path opacity="0.1" d="M141.228 88.4615L144.299 106.154C144.299 106.154 176.92 102.692 179.223 109.231C181.525 115.769 182.293 117.692 182.293 117.692L175.769 120L172.698 114.231C171.763 113.899 170.77 113.762 169.781 113.828C168.791 113.894 167.825 114.162 166.942 114.615C163.872 116.154 137.007 120 135.088 115C133.169 110 127.796 91.5385 127.796 91.5385L135.856 85L141.228 88.4615Z" fill="black"/>
<path d="M159.439 140.832L162.065 150.162L168.815 185.93C168.815 185.93 169.565 212.368 170.69 215.478C171.816 218.588 171.816 218.977 170.69 220.143C169.565 221.31 167.315 225.197 170.69 227.53C174.066 229.863 186.067 232.584 186.442 229.863C186.817 227.141 186.817 222.865 186.442 220.921C186.067 218.977 187.567 188.652 187.567 188.652L183.066 142.387L167.69 135L159.439 140.832Z" fill="#2F2E41"/>
<path opacity="0.1" d="M159.439 140.832L162.065 150.162L168.815 185.93C168.815 185.93 169.565 212.368 170.69 215.478C171.816 218.588 171.816 218.977 170.69 220.143C169.565 221.31 167.315 225.197 170.69 227.53C174.066 229.863 186.067 232.584 186.442 229.863C186.817 227.141 186.817 222.865 186.442 220.921C186.067 218.977 187.567 188.652 187.567 188.652L183.066 142.387L167.69 135L159.439 140.832Z" fill="black"/>
<path d="M175.378 104L183.787 120.176C183.787 120.176 231.944 141.745 227.74 150.604C223.536 159.462 200.221 176.024 200.221 176.024C200.221 176.024 199.075 182.571 195.635 180.645C192.195 178.72 183.787 168.706 184.551 167.55C185.316 166.395 187.991 163.699 189.138 164.084C190.284 164.469 203.661 154.07 203.661 154.07L180.729 148.293C180.729 148.293 153.211 147.522 151.682 134.427C150.153 121.332 151.682 119.021 151.682 119.021L149.771 114.784L165.441 105.155L175.378 104Z" fill="#2F2E41"/>
<path d="M188.074 169L179.865 176.057C179.865 176.057 172.829 173.086 168.529 174.2C164.229 175.314 156.802 176.057 156.802 176.057L157.975 182.371L167.948 180.623L159.93 191.286C159.93 191.286 159.93 208 165.011 208C170.093 208 168.529 197.971 168.529 197.971L184.165 186.457C184.165 186.457 191.982 183.486 192.764 183.486C193.546 183.486 188.074 169 188.074 169Z" fill="#2F2E41"/>
<path d="M137.465 61C144.747 61 150.65 54.9558 150.65 47.5C150.65 40.0442 144.747 34 137.465 34C130.183 34 124.28 40.0442 124.28 47.5C124.28 54.9558 130.183 61 137.465 61Z" fill="#A0616A"/>
<path d="M124.634 57.6907C124.634 57.6907 130.821 56.1367 132.755 57.6907C134.689 59.2447 135.075 62.7412 137.783 63.1297C140.49 63.5182 142.81 63.5182 143.197 63.9067C143.584 64.2952 152.478 75.1732 152.478 75.1732C152.478 75.1732 157.893 78.2812 159.053 82.5547C160.213 86.8282 171.815 101.203 173.362 102.757C174.909 104.311 163.307 112.081 159.44 114.8C155.572 117.52 144.357 118.685 140.876 112.469C137.396 106.253 118.446 65.8492 124.634 57.6907Z" fill="#575A89"/>
<path d="M139.254 82.5604L142.275 100.758C142.275 100.758 174.37 97.1978 176.635 103.923C178.901 110.648 179.656 112.626 179.656 112.626L173.237 115L170.216 109.066C169.296 108.725 168.319 108.584 167.345 108.652C166.372 108.72 165.421 108.995 164.552 109.462C161.532 111.044 135.1 115 133.212 109.857C131.324 104.714 126.038 85.7253 126.038 85.7253L133.968 79L139.254 82.5604Z" fill="#A0616A"/>
<path d="M132.448 59.5205C132.448 59.5205 141.703 78.6672 140.936 83.9447C140.168 89.2221 137.48 85.4525 137.48 85.4525C137.48 85.4525 134.025 80.1751 132.49 83.1908C130.954 86.2064 129.035 90.353 127.499 89.976C125.964 89.5991 117.518 61.7041 122.125 59.0654C126.731 56.4267 132.448 59.5205 132.448 59.5205Z" fill="#575A89"/>
<path d="M113.293 35C122.759 35 130.433 27.165 130.433 17.5C130.433 7.83502 122.759 0 113.293 0C103.827 0 96.1528 7.83502 96.1528 17.5C96.1528 27.165 103.827 35 113.293 35Z" fill="#2F2E41"/>
<path d="M97.709 31.7337C99.936 33.4076 102.516 34.5025 105.234 34.9268C107.951 35.3511 110.727 35.0925 113.328 34.1726C115.93 33.2527 118.282 31.6982 120.187 29.6393C122.092 27.5803 123.496 25.0767 124.28 22.338C123.983 24.7924 123.201 27.156 121.981 29.2799C120.762 31.4037 119.132 33.2415 117.195 34.6772C115.258 36.113 113.056 37.1156 110.727 37.6216C108.399 38.1276 105.995 38.1261 103.667 37.6172C101.34 37.1083 99.1385 36.1031 97.2032 34.6649C95.2678 33.2267 93.6402 31.3869 92.4231 29.2616C91.206 27.1363 90.4259 24.7716 90.1319 22.3169C89.8379 19.8623 90.0366 17.3708 90.7152 15C90.3298 18.1852 90.7757 21.4196 92.0063 24.3639C93.2368 27.3081 95.2066 29.8537 97.709 31.7337V31.7337Z" fill="#2F2E41"/>
<path d="M127.796 56C134.592 56 140.102 50.4036 140.102 43.5C140.102 36.5964 134.592 31 127.796 31C121 31 115.49 36.5964 115.49 43.5C115.49 50.4036 121 56 127.796 56Z" fill="#2F2E41"/>
<path d="M137.465 47C143.776 47 148.892 43.1944 148.892 38.5C148.892 33.8056 143.776 30 137.465 30C131.154 30 126.038 33.8056 126.038 38.5C126.038 43.1944 131.154 47 137.465 47Z" fill="#2F2E41"/>
<path d="M137.465 53C138.921 53 140.102 50.9853 140.102 48.5C140.102 46.0147 138.921 44 137.465 44C136.009 44 134.828 46.0147 134.828 48.5C134.828 50.9853 136.009 53 137.465 53Z" fill="#A0616A"/>
<path d="M171.179 114.384C171.179 114.384 178.824 110.098 180.243 111.173C181.662 112.248 182.293 115.611 182.293 115.611L173.457 119L170.866 114.358L171.179 114.384Z" fill="#2F2E41"/>
</svg>
