<svg width="19" height="19" viewBox="0 0 19 19" fill="none" xmlns="http://www.w3.org/2000/svg">
<path d="M17.4167 1.58337H1.58335C1.37339 1.58337 1.17203 1.66678 1.02356 1.81525C0.875094 1.96371 0.791687 2.16508 0.791687 2.37504V8.70837C0.791687 8.91834 0.875094 9.1197 1.02356 9.26817C1.17203 9.41663 1.37339 9.50004 1.58335 9.50004H3.95835V16.625C3.95835 16.835 4.04176 17.0364 4.19023 17.1848C4.33869 17.3333 4.54006 17.4167 4.75002 17.4167H14.25C14.46 17.4167 14.6613 17.3333 14.8098 17.1848C14.9583 17.0364 15.0417 16.835 15.0417 16.625V9.50004H17.4167C17.6266 9.50004 17.828 9.41663 17.9765 9.26817C18.1249 9.1197 18.2084 8.91834 18.2084 8.70837V2.37504C18.2084 2.16508 18.1249 1.96371 17.9765 1.81525C17.828 1.66678 17.6266 1.58337 17.4167 1.58337ZM5.54169 15.8334V14.25C5.96161 14.25 6.36434 14.4169 6.66127 14.7138C6.9582 15.0107 7.12502 15.4134 7.12502 15.8334H5.54169ZM13.4584 15.8334H11.875C11.875 15.4134 12.0418 15.0107 12.3388 14.7138C12.6357 14.4169 13.0384 14.25 13.4584 14.25V15.8334ZM13.4584 12.6667C12.6185 12.6667 11.813 13.0003 11.2192 13.5942C10.6253 14.1881 10.2917 14.9935 10.2917 15.8334H8.70835C8.70835 14.9935 8.37472 14.1881 7.78086 13.5942C7.18699 13.0003 6.38154 12.6667 5.54169 12.6667V6.33337H13.4584V12.6667ZM16.625 7.91671H15.0417V5.54171C15.0417 5.33174 14.9583 5.13038 14.8098 4.98191C14.6613 4.83345 14.46 4.75004 14.25 4.75004H4.75002C4.54006 4.75004 4.33869 4.83345 4.19023 4.98191C4.04176 5.13038 3.95835 5.33174 3.95835 5.54171V7.91671H2.37502V3.16671H16.625V7.91671ZM9.50002 11.875C9.96975 11.875 10.4289 11.7358 10.8195 11.4748C11.2101 11.2138 11.5145 10.8429 11.6942 10.4089C11.874 9.97494 11.921 9.49741 11.8294 9.0367C11.7377 8.576 11.5115 8.15281 11.1794 7.82066C10.8472 7.48851 10.4241 7.26232 9.96336 7.17068C9.50265 7.07904 9.02512 7.12607 8.59115 7.30583C8.15717 7.48559 7.78625 7.79 7.52528 8.18056C7.26431 8.57113 7.12502 9.03031 7.12502 9.50004C7.12502 10.1299 7.37524 10.734 7.82064 11.1794C8.26604 11.6248 8.87013 11.875 9.50002 11.875ZM9.50002 8.70837C9.6566 8.70837 9.80966 8.75481 9.93985 8.84179C10.07 8.92878 10.1715 9.05243 10.2314 9.19708C10.2913 9.34174 10.307 9.50092 10.2765 9.65449C10.2459 9.80806 10.1705 9.94912 10.0598 10.0598C9.9491 10.1706 9.80803 10.2459 9.65447 10.2765C9.5009 10.307 9.34172 10.2914 9.19706 10.2314C9.0524 10.1715 8.92876 10.0701 8.84177 9.93987C8.75478 9.80968 8.70835 9.65662 8.70835 9.50004C8.70835 9.29008 8.79176 9.08872 8.94023 8.94025C9.08869 8.79178 9.29006 8.70837 9.50002 8.70837Z" fill="#1293A9"/>
</svg>
